<svg xmlns="http://www.w3.org/2000/svg" x="0px" y="0px"
width="32" height="32"
viewBox="0 0 172 172"
style=" fill:#000000;"><g fill="none" fill-rule="nonzero" stroke="none" stroke-width="1" stroke-linecap="butt" stroke-linejoin="miter" stroke-miterlimit="10" stroke-dasharray="" stroke-dashoffset="0" font-family="none" font-weight="none" font-size="none" text-anchor="none" style="mix-blend-mode: normal"><path d="M0,172v-172h172v172z" fill="none"></path><g fill="#cccccc"><path d="M86,32.25c-5.9419,0 -10.75,4.8081 -10.75,10.75c0,5.9419 4.8081,10.75 10.75,10.75c5.9419,0 10.75,-4.8081 10.75,-10.75c0,-5.9419 -4.8081,-10.75 -10.75,-10.75zM86,75.25c-5.9419,0 -10.75,4.8081 -10.75,10.75c0,5.9419 4.8081,10.75 10.75,10.75c5.9419,0 10.75,-4.8081 10.75,-10.75c0,-5.9419 -4.8081,-10.75 -10.75,-10.75zM86,118.25c-5.9419,0 -10.75,4.8081 -10.75,10.75c0,5.9419 4.8081,10.75 10.75,10.75c5.9419,0 10.75,-4.8081 10.75,-10.75c0,-5.9419 -4.8081,-10.75 -10.75,-10.75z"></path></g></g></svg>