<svg xmlns="http://www.w3.org/2000/svg" x="0px" y="0px"
width="32" height="32"
viewBox="0 0 172 172"
style=" fill:#000000;"><g fill="none" fill-rule="nonzero" stroke="none" stroke-width="1" stroke-linecap="butt" stroke-linejoin="miter" stroke-miterlimit="10" stroke-dasharray="" stroke-dashoffset="0" font-family="none" font-weight="none" font-size="none" text-anchor="none" style="mix-blend-mode: normal"><path d="M0,172v-172h172v172z" fill="none"></path><g fill="#cccccc"><path d="M102.125,16.125c-29.62549,0 -53.75,24.12451 -53.75,53.75c0,12.8706 4.51416,24.67041 12.09375,33.92969l-42.83203,42.83203l7.72656,7.72656l42.83203,-42.83203c9.25928,7.57959 21.05908,12.09375 33.92969,12.09375c29.62549,0 53.75,-24.12451 53.75,-53.75c0,-29.62549 -24.12451,-53.75 -53.75,-53.75zM102.125,26.875c23.80957,0 43,19.19043 43,43c0,23.80957 -19.19043,43 -43,43c-23.80957,0 -43,-19.19043 -43,-43c0,-23.80957 19.19043,-43 43,-43z"></path></g></g></svg>